<?xml version="1.0" encoding="utf-8"?>
<!-- Generator: Adobe Illustrator 19.2.1, SVG Export Plug-In . SVG Version: 6.00 Build 0)  -->
<svg version="1.1" id="Layer_1" xmlns="http://www.w3.org/2000/svg" xmlns:xlink="http://www.w3.org/1999/xlink" x="0px" y="0px"
	 viewBox="0 0 136 150" style="enable-background:new 0 0 136 150;" xml:space="preserve">
<style type="text/css">
	.st0{fill:#7C634F;}
	.st1{fill:#D0D2D3;}
	.st2{fill:#6ECAF3;}
	.st3{fill:#CED0D1;}
	.st4{fill:#F6CC78;}
	.st5{fill:#BBBDBF;}
	.st6{fill:#58595B;}
	.st7{fill:#FFB4D3;}
	.st8{fill:#A6A8AB;}
	.st9{opacity:0.2;fill:#FFFFFF;}
	.st10{fill:#4F3E31;}
	.st11{fill:#EBEBEC;}
	.st12{fill:#E0E1E2;}
	.st13{fill:#D1D2D4;}
	.st14{fill:#534235;}
	.st15{fill:#4A3A2E;}
	.st16{fill:#F8C1D9;}
	.st17{fill:#FFFFFF;}
	.st18{fill:#E4E5E6;}
	.st19{fill:#836854;}
	.st20{fill:#745D4A;}
	.st21{fill:#F3A5C8;}
	.st22{fill:#66493C;}
	.st23{fill:#6F5043;}
	.st24{fill:#4C3C34;}
	.st25{fill:#F4F4F6;}
	.st26{fill:#F8F8F9;}
	.st27{fill:#EBEBEE;}
	.st28{fill:#DFDFE0;}
	.st29{fill:#86888A;}
</style>
<g id="XMLID_2_">
	<g>
		<path class="st17" d="M27.986,124c6.785,0,12.25,5.623,11.991,12.466c-0.234,6.179-5.347,11.292-11.525,11.525
			C21.61,148.25,15.986,142.785,15.986,136v-1V12.748c0-2.623,2.126-4.748,4.748-4.748h97.412c2.121,0,3.84,1.719,3.84,3.84V124
			H27.986z"/>
		<path class="st25" d="M121.986,124c6.63,0,12,5.37,12,12s-5.37,12-12,12h-94c6.63,0,12-5.37,12-12s-5.37-12-12-12H121.986z"/>
		<path class="st26" d="M27.986,124h8V12.748c0-2.622,2.126-4.748,4.748-4.748h-20c-2.622,0-4.748,2.126-4.748,4.748V135v1
			c0,6.785,5.623,12.25,12.466,11.991c6.179-0.234,11.292-5.347,11.525-11.525C40.236,129.623,34.771,124,27.986,124z"/>
		<path class="st27" d="M55.986,136c0-6.63-5.37-12-12-12h-16c6.63,0,12,5.37,12,12s-5.37,12-12,12h16
			C50.616,148,55.986,142.63,55.986,136z"/>
		<path class="st28" d="M49.986,136c0-6.63-5.37-12-12-12h-10c6.63,0,12,5.37,12,12s-5.37,12-12,12h10
			C44.616,148,49.986,142.63,49.986,136z"/>
		<g>
			<path class="st25" d="M27.986,124h1V8h-8.252c-2.622,0-4.748,2.126-4.748,4.748V135v1c0,6.785,5.623,12.25,12.466,11.991
				c6.179-0.234,11.292-5.347,11.525-11.525C40.236,129.623,34.771,124,27.986,124z"/>
			<path class="st25" d="M37.986,8v0.888C38.763,8.334,39.708,8,40.735,8H37.986z"/>
		</g>
	</g>
	<g>
		<path class="st29" d="M123.986,122.16V12.797c0-3.748-3.05-6.797-6.798-6.797h-6.352c-0.289-1.432-0.989-2.748-2.045-3.805
			C107.374,0.78,105.49,0,103.486,0c-3.622,0-6.652,2.581-7.349,6H20.784c-3.748,0-6.798,3.049-6.798,6.797V135
			c0,0.174,0.029,0.339,0.071,0.5c-0.042,0.161-0.071,0.326-0.071,0.5c0,7.72,6.28,14,14,14h94c7.72,0,14-6.28,14-14
			C135.986,128.961,130.76,123.135,123.986,122.16z M103.486,4c0.937,0,1.815,0.364,2.476,1.023
			c0.286,0.287,0.506,0.621,0.675,0.977h-6.299C100.901,4.822,102.095,4,103.486,4z M17.986,136c0-0.174-0.029-0.339-0.071-0.5
			c0.042-0.161,0.071-0.326,0.071-0.5V12.797c0-1.542,1.255-2.797,2.798-2.797h86.202v11.5c0,0.827-0.673,1.5-1.5,1.5
			c-0.398,0-0.77-0.154-1.065-0.454c-0.28-0.276-0.435-0.647-0.435-1.046V15c0-1.104-0.896-2-2-2s-2,0.896-2,2v6.5
			c0,1.478,0.577,2.861,1.605,3.874c1.032,1.049,2.416,1.626,3.895,1.626c3.032,0,5.5-2.467,5.5-5.5V10h6.202
			c1.543,0,2.798,1.255,2.798,2.797V122h-92c-1.104,0-2,0.896-2,2s0.896,2,2,2c5.514,0,10,4.486,10,10s-4.486,10-10,10
			S17.986,141.514,17.986,136z M121.986,146H37.766c2.6-2.543,4.221-6.084,4.221-10s-1.621-7.457-4.221-10h84.221
			c5.514,0,10,4.486,10,10S127.5,146,121.986,146z"/>
		<path class="st29" d="M54.986,31.09c0,1.104,0.896,2,2,2h33c1.104,0,2-0.896,2-2s-0.896-2-2-2h-33
			C55.882,29.09,54.986,29.985,54.986,31.09z"/>
		<path class="st29" d="M54.986,39.09c0,1.104,0.896,2,2,2h50c1.104,0,2-0.896,2-2s-0.896-2-2-2h-50
			C55.882,37.09,54.986,37.985,54.986,39.09z"/>
		<path class="st29" d="M56.986,49.09h42c1.104,0,2-0.896,2-2s-0.896-2-2-2h-42c-1.104,0-2,0.896-2,2S55.882,49.09,56.986,49.09z"/>
		<path class="st29" d="M56.986,57.09h32c1.104,0,2-0.896,2-2s-0.896-2-2-2h-32c-1.104,0-2,0.896-2,2S55.882,57.09,56.986,57.09z"/>
		<path class="st29" d="M27.986,33h16c1.104,0,2-0.896,2-2s-0.896-2-2-2h-16c-1.104,0-2,0.896-2,2S26.882,33,27.986,33z"/>
		<path class="st29" d="M56.986,69.18h40c1.104,0,2-0.896,2-2s-0.896-2-2-2h-40c-1.104,0-2,0.896-2,2S55.882,69.18,56.986,69.18z"/>
		<path class="st29" d="M56.986,77.18h49c1.104,0,2-0.895,2-2c0-1.104-0.896-2-2-2h-49c-1.104,0-2,0.896-2,2
			C54.986,76.285,55.882,77.18,56.986,77.18z"/>
		<path class="st29" d="M56.986,85.18h43c1.104,0,2-0.896,2-2s-0.896-2-2-2h-43c-1.104,0-2,0.896-2,2S55.882,85.18,56.986,85.18z"/>
		<path class="st29" d="M43.986,65.09h-14c-1.104,0-2,0.896-2,2s0.896,2,2,2h14c1.104,0,2-0.896,2-2S45.091,65.09,43.986,65.09z"/>
		<path class="st29" d="M106.986,94.09h-50c-1.104,0-2,0.896-2,2s0.896,2,2,2h50c1.104,0,2-0.896,2-2S108.091,94.09,106.986,94.09z"
			/>
		<path class="st29" d="M101.986,102.09h-45c-1.104,0-2,0.896-2,2s0.896,2,2,2h45c1.104,0,2-0.896,2-2
			S103.091,102.09,101.986,102.09z"/>
		<path class="st29" d="M101.986,110h-45c-1.104,0-2,0.896-2,2s0.896,2,2,2h45c1.104,0,2-0.896,2-2S103.091,110,101.986,110z"/>
		<path class="st29" d="M43.986,94h-14c-1.104,0-2,0.896-2,2s0.896,2,2,2h14c1.104,0,2-0.896,2-2S45.091,94,43.986,94z"/>
		<path class="st29" d="M27.986,22h40c1.104,0,2-0.896,2-2s-0.896-2-2-2h-40c-1.104,0-2,0.896-2,2S26.882,22,27.986,22z"/>
	</g>
</g>
<g>
	<path class="st17" d="M4.493,0l0.716,3.288c0.053,0.245,0.244,0.435,0.489,0.489l3.288,0.716L5.698,5.209
		C5.454,5.263,5.263,5.454,5.209,5.698L4.493,8.986L3.777,5.698C3.724,5.454,3.533,5.263,3.288,5.209L0,4.493l3.288-0.716
		c0.245-0.053,0.435-0.244,0.489-0.489L4.493,0z"/>
	<path class="st17" d="M8.974,13l0.48,2.204c0.036,0.164,0.164,0.292,0.328,0.328l2.204,0.48l-2.204,0.48
		c-0.164,0.036-0.292,0.164-0.328,0.328l-0.48,2.204l-0.48-2.204c-0.036-0.164-0.164-0.292-0.328-0.328l-2.204-0.48l2.204-0.48
		c0.164-0.036,0.292-0.164,0.328-0.328L8.974,13z"/>
	<path class="st17" d="M129.982,27.99l0.479,2.199c0.036,0.164,0.163,0.291,0.327,0.327l2.199,0.479l-2.199,0.479
		c-0.164,0.036-0.291,0.163-0.327,0.327L129.982,34l-0.479-2.199c-0.036-0.164-0.163-0.291-0.327-0.327l-2.199-0.479l2.199-0.479
		c0.164-0.036,0.291-0.163,0.327-0.327L129.982,27.99z"/>
	<path class="st17" d="M20.978,2l0.478,2.195c0.036,0.163,0.163,0.291,0.326,0.326L23.978,5l-2.195,0.478
		c-0.163,0.036-0.291,0.163-0.326,0.326L20.978,8L20.5,5.805c-0.036-0.163-0.163-0.291-0.326-0.326L17.978,5l2.195-0.478
		c0.163-0.036,0.291-0.163,0.326-0.326L20.978,2z"/>
</g>
</svg>
