<?xml version="1.0" encoding="utf-8"?>
<!-- Generator: Adobe Illustrator 19.2.1, SVG Export Plug-In . SVG Version: 6.00 Build 0)  -->
<svg version="1.1" id="Layer_1" xmlns="http://www.w3.org/2000/svg" xmlns:xlink="http://www.w3.org/1999/xlink" x="0px" y="0px"
	 viewBox="0 0 102 150" style="enable-background:new 0 0 102 150;" xml:space="preserve">
<style type="text/css">
	.st0{fill:#7C634F;}
	.st1{fill:#D0D2D3;}
	.st2{fill:#6ECAF3;}
	.st3{fill:#CED0D1;}
	.st4{fill:#F6CC78;}
	.st5{fill:#BBBDBF;}
	.st6{fill:#58595B;}
	.st7{fill:#FFB4D3;}
	.st8{fill:#A6A8AB;}
	.st9{opacity:0.2;fill:#FFFFFF;}
	.st10{fill:#4F3E31;}
	.st11{fill:#EBEBEC;}
	.st12{fill:#E0E1E2;}
	.st13{fill:#D1D2D4;}
	.st14{fill:#534235;}
	.st15{fill:#4A3A2E;}
	.st16{fill:#F8C1D9;}
	.st17{fill:#FFFFFF;}
	.st18{fill:#E4E5E6;}
	.st19{fill:#836854;}
	.st20{fill:#745D4A;}
	.st21{fill:#F3A5C8;}
	.st22{fill:#66493C;}
	.st23{fill:#6F5043;}
	.st24{fill:#4C3C34;}
	.st25{fill:#F4F4F6;}
	.st26{fill:#F8F8F9;}
	.st27{fill:#EBEBEE;}
	.st28{fill:#DFDFE0;}
	.st29{fill:#86888A;}
	.st30{fill:#A54B94;}
	.st31{fill:#D4BC9B;}
	.st32{fill:#A55498;}
	.st33{fill:#D3A561;}
	.st34{fill:#C7B192;}
	.st35{fill:#DCC6A9;}
	.st36{fill:#D3AD72;}
	.st37{fill:#CAB4FF;}
	.st38{fill:#C6A9FF;}
	.st39{fill:#765C60;}
	.st40{fill:#864481;}
	.st41{fill:#AE8950;}
	.st42{fill:#AA8CE1;}
	.st43{fill:#846255;}
	.st44{fill:#6AAB98;}
	.st45{fill:#F5887A;}
	.st46{fill:#8C685B;}
	.st47{fill:#77584D;}
	.st48{fill:#F69788;}
	.st49{fill:#E07D70;}
	.st50{fill:#7CB0A7;}
	.st51{fill:#619E8D;}
	.st52{fill:#70524E;}
	.st53{fill:#A78AF2;}
	.st54{fill:#50DB7E;}
	.st55{fill:#FBC2F2;}
	.st56{fill:#ECF4F9;}
	.st57{fill:#987EE7;}
	.st58{fill:#FBB0F2;}
	.st59{fill:#AC92FF;}
	.st60{fill:#5C76AA;}
	.st61{fill:#00B8ED;}
	.st62{fill:#EFEFF0;}
	.st63{fill:#CDAA6F;}
	.st64{fill:#5E8664;}
	.st65{fill:#644F3B;}
	.st66{fill:#785E47;}
	.st67{fill:#5C4936;}
	.st68{fill:#6A533E;}
	.st69{fill:#80654D;}
	.st70{fill:#544835;}
	.st71{fill:#D8468E;}
	.st72{fill:#5AD83F;}
	.st73{fill:#47C93F;}
	.st74{fill:#1CB14B;}
	.st75{fill:#D1FF25;}
	.st76{fill:#FF86B5;}
	.st77{fill:#F086B5;}
	.st78{fill:#F0F1F1;}
	.st79{fill:#F580B5;}
	.st80{fill:#E5E6E7;}
	.st81{fill:#E67CAD;}
	.st82{fill:#D46CAD;}
	.st83{fill:#796F6C;}
	.st84{fill:#0E86FE;}
	.st85{fill:#C93131;}
	.st86{fill:#B83131;}
	.st87{fill:#E5E5E5;}
	.st88{fill:#0E7FFB;}
	.st89{fill:#DBDCDD;}
	.st90{fill:none;stroke:#8D382D;stroke-width:4;stroke-linecap:round;stroke-linejoin:round;stroke-miterlimit:10;}
	.st91{fill:none;stroke:#0E6CFE;stroke-width:4;stroke-linecap:round;stroke-linejoin:round;stroke-miterlimit:10;}
	.st92{fill:none;stroke:#BBBDBF;stroke-width:4;stroke-linecap:round;stroke-linejoin:round;stroke-miterlimit:10;}
	.st93{fill:none;stroke:#A6A8AB;stroke-width:4;stroke-linecap:round;stroke-linejoin:round;stroke-miterlimit:10;}
	.st94{fill:#701F2F;}
	.st95{fill:#1C3B71;}
	.st96{fill:#214181;}
	.st97{fill:#621221;}
	.st98{fill:#231F20;}
	.st99{fill:#31DCFF;}
	.st100{fill:#80192B;}
	.st101{fill:#80994A;}
	.st102{fill:#6B192B;}
	.st103{fill:#5E7031;}
	.st104{fill:#58192B;}
	.st105{fill:#68E674;}
	.st106{fill:#FD7C91;}
	.st107{fill:#27A5FF;}
	.st108{fill:#B081E3;}
	.st109{fill:#FFEB26;}
	.st110{fill:#FFF04D;}
	.st111{fill:#FFDE00;}
	.st112{fill:#FFD906;}
	.st113{fill:#EFBD55;}
	.st114{fill:#E2AD41;}
	.st115{fill:#D69E36;}
	.st116{fill:#CE9333;}
	.st117{fill:#F2829E;}
	.st118{fill:#FED77E;}
	.st119{fill:#FECC71;}
	.st120{fill:#FEC471;}
	.st121{fill:#F4CFB4;}
	.st122{fill:#F2729E;}
	.st123{fill:#9FA2A0;}
	.st124{fill:#E8C0A5;}
	.st125{fill:#D97CFF;}
	.st126{fill:#D1C6C1;}
	.st127{fill:#C0B6B2;}
	.st128{fill:#FAAF40;}
	.st129{fill:#F3AA3F;}
	.st130{fill:#F3F4F4;}
	.st131{fill:#9A8479;}
	.st132{fill:#99EC9B;}
	.st133{fill:#FF9AB5;}
	.st134{fill:#F38DB0;}
	.st135{fill:#8ED79B;}
	.st136{fill:#FFAAC4;}
	.st137{fill:#B9F6AB;}
	.st138{fill:#6D6E71;}
	.st139{fill:#93A8BE;}
	.st140{fill:#8CA1B7;}
	.st141{fill:#718AA2;}
	.st142{fill:#9D5388;}
	.st143{fill:#8E4A7C;}
	.st144{fill:#FFED79;}
	.st145{fill:#B90B22;}
	.st146{fill:#FFE45C;}
	.st147{fill:#A60014;}
	.st148{fill:#C2172A;}
	.st149{fill:none;stroke:#FFDB17;stroke-width:4;stroke-linecap:round;stroke-linejoin:round;stroke-miterlimit:10;}
	.st150{fill:#FFDB17;}
	.st151{fill:#8B0002;}
</style>
<g>
	<g>
		<path class="st144" d="M63,26.01C63.17,26,63.33,26,63.5,26c4.69,0,8.5,3.81,8.5,8.5c0,0.51-0.05,1.01-0.13,1.5L72,36.37
			c3.48,1.07,6,4.31,6,8.13V45H2.01c0.26-4.46,3.97-8,8.49-8l1.63-0.18C12.04,36.23,12,35.62,12,35c0-7.18,5.82-13,13-13
			c1.81,0,3.54,0.37,5.11,1.04L30.13,23c0.71-3.98,4.19-7,8.37-7c3.45,0,6.41,2.05,7.75,5h0.27c1.61-2.41,4.36-4,7.48-4
			c4.97,0,9,4.03,9,9V26.01z"/>
		<path class="st145" d="M78,45l-10.13,95.79c-0.5,4.67-4.43,8.21-9.13,8.21H21.26c-4.7,0-8.63-3.54-9.13-8.21L2.01,45.09
			c0-0.01,0-0.02,0-0.03c0-0.02,0-0.04,0-0.06H78z"/>
		<path class="st146" d="M74.972,38C76.824,39.56,78,41.893,78,44.5V45H2.01c0.177-3.034,1.951-5.643,4.49-7.001L74.972,38z"/>
		<path class="st147" d="M20.12,140.79L10,45.09c0-0.01,0-0.02,0-0.03c0-0.02,0-0.04,0-0.06H2.01c0,0.02,0,0.04,0,0.06
			c0,0.01,0,0.02,0,0.03l10.12,95.7c0.5,4.67,4.43,8.21,9.13,8.21h7.99C24.55,149,20.62,145.46,20.12,140.79z"/>
		<path class="st148" d="M59.89,140.79l10.12-95.7c0-0.01,0-0.02,0-0.03c0-0.02,0-0.04,0-0.06H78c0,0.02,0,0.04,0,0.06
			c0,0.01,0,0.02,0,0.03l-10.12,95.7c-0.5,4.67-4.43,8.21-9.13,8.21h-7.99C55.46,149,59.39,145.46,59.89,140.79z"/>
		<path class="st144" d="M98.69,139.65c1.75,1.74,1.75,4.56,0,6.31c-1.6,1.6-4.11,1.72-5.86,0.37c-0.08,0.09-0.15,0.18-0.23,0.26
			c-1.74,1.74-4.56,1.74-6.31,0c-1.74-1.75-1.74-4.57,0-6.31c0.87-0.87,2-1.3,3.14-1.3c-0.52-1.56-0.17-3.34,1.07-4.58
			c1.74-1.75,4.56-1.75,6.3,0c1.25,1.24,1.6,3.04,1.06,4.6C98.16,139.18,98.44,139.39,98.69,139.65z"/>
	</g>
	<g>
		<path class="st17" d="M40,136c-1.104,0-2-0.896-2-2V58c0-1.104,0.896-2,2-2s2,0.896,2,2v76C42,135.105,41.104,136,40,136z"/>
		<path class="st17" d="M53.002,131c-0.047,0-0.095-0.002-0.143-0.005c-1.102-0.078-1.932-1.034-1.854-2.136l5-71
			c0.077-1.101,1.019-1.938,2.136-1.854c1.102,0.078,1.932,1.034,1.854,2.136l-5,71C54.921,130.195,54.043,131,53.002,131z"/>
		<path class="st17" d="M26.998,131c-1.041,0-1.919-0.806-1.993-1.859l-5-71c-0.077-1.102,0.753-2.058,1.854-2.136
			c1.098-0.084,2.058,0.753,2.136,1.854l5,71c0.077,1.102-0.753,2.058-1.854,2.136C27.093,130.999,27.045,131,26.998,131z"/>
		<path class="st149" d="M96.8,134.4c-1.74-1.75-4.56-1.75-6.3,0c-1.24,1.24-1.59,3.02-1.07,4.58c-1.14,0-2.27,0.43-3.14,1.3
			c-1.74,1.74-1.74,4.56,0,6.31c1.75,1.74,4.57,1.74,6.31,0c0.08-0.08,0.15-0.17,0.23-0.26c1.75,1.35,4.26,1.23,5.86-0.37
			c1.75-1.75,1.75-4.57,0-6.31c-0.25-0.26-0.53-0.47-0.83-0.65C98.4,137.44,98.05,135.64,96.8,134.4z"/>
		<g>
			<path class="st150" d="M73.978,35.001C73.986,34.834,74,34.665,74,34.5c0-5.341-4.011-9.753-9.177-10.407
				C63.916,18.935,59.414,15,54,15c-2.767,0-5.385,1.035-7.385,2.849C44.646,15.455,41.681,14,38.5,14
				c-4.333,0-8.118,2.634-9.706,6.502C27.562,20.181,26.296,20,25,20c-8.271,0-15,6.729-15,15c0,0.008,0.001,0.015,0.001,0.022
				c-4.878,0.23-8.976,3.78-9.842,8.625c-0.194,1.087,0.529,2.126,1.617,2.321c0.119,0.021,0.237,0.032,0.354,0.032
				c0.951,0,1.794-0.68,1.967-1.648C4.651,41.25,7.344,39,10.5,39c0.365,0,0.75,0.034,1.178,0.104
				c0.715,0.12,1.391-0.157,1.828-0.662c0.461-0.434,0.71-1.079,0.62-1.745c-0.002-0.03-0.011-0.059-0.014-0.089
				c-0.003-0.03,0-0.059-0.004-0.09C14.036,36.052,14,35.541,14,35c0-6.065,4.935-11,11-11c1.502,0,2.957,0.296,4.322,0.878
				c2.934,1.257,5.173,3.711,6.144,6.733c0.338,1.051,1.458,1.627,2.517,1.292c1.051-0.338,1.63-1.464,1.292-2.516
				c-1.141-3.55-3.566-6.518-6.77-8.371C33.491,19.63,35.821,18,38.5,18c2.546,0,4.873,1.502,5.929,3.827
				c0.357,0.784,1.156,1.221,1.969,1.161c0.687,0.041,1.375-0.264,1.785-0.877C49.484,20.163,51.659,19,54,19
				c3.293,0,6.056,2.289,6.798,5.358c-0.556,0.147-1.099,0.333-1.621,0.569c-0.888,0.401-1.72,0.929-2.473,1.569
				c-0.841,0.716-0.943,1.978-0.228,2.819s1.977,0.944,2.819,0.229c0.467-0.398,0.981-0.725,1.527-0.971
				c0.713-0.322,1.49-0.513,2.297-0.566c0.129-0.009,0.25-0.008,0.38-0.007c3.584,0,6.5,2.916,6.5,6.5
				c0,0.366-0.034,0.75-0.104,1.177c-0.069,0.419,0.001,0.828,0.171,1.185c0.167,0.653,0.653,1.208,1.344,1.42
				C74.156,39.125,76,41.624,76,44.5c0,1.104,0.896,2,2,2s2-0.896,2-2C80,40.362,77.631,36.712,73.978,35.001z"/>
			<path class="st150" d="M50.21,31c-3.644,0-6.973,1.847-8.906,4.94c-0.585,0.937-0.301,2.17,0.637,2.756
				C42.27,38.902,42.636,39,42.998,39c0.667,0,1.318-0.333,1.698-0.94C45.894,36.144,47.955,35,50.21,35
				c1.529,0,3.013,0.542,4.179,1.528c0.845,0.713,2.105,0.606,2.818-0.237s0.607-2.105-0.236-2.818
				C55.083,31.878,52.683,31,50.21,31z"/>
		</g>
		<path class="st151" d="M58.74,150H21.26c-5.729,0-10.509-4.298-11.118-9.998L0.011,44.21c-0.116-1.099,0.681-2.083,1.779-2.199
			C1.87,42.003,1.941,42,2.028,42H78c0.567,0,1.107,0.241,1.486,0.662c0.38,0.421,0.562,0.984,0.503,1.548l-10.13,95.789
			C69.249,145.703,64.469,150,58.74,150z M4.223,46l9.896,93.58c0.392,3.659,3.462,6.421,7.141,6.421h37.48
			c3.679,0,6.749-2.762,7.142-6.424L75.777,46H4.223z"/>
	</g>
</g>
</svg>
